<svg width="128" height="128" viewBox="0 0 128 128" xmlns="http://www.w3.org/2000/svg">
  <mask id="mask0" mask-type="alpha" maskUnits="userSpaceOnUse" x="0" y="0" width="128" height="128">
    <rect width="128" height="128" rx="32"/>
  </mask>
  <g mask="url(#mask0)">
    <rect width="128" height="128"/>
    <rect width="128" height="128" rx="32" fill="#344E5C"/>
    <rect x="152.184" y="9.5" width="10" height="174.641" transform="rotate(45 152.184 9.5)" fill="#EF3D59"/>
    <path fill-rule="evenodd" clip-rule="evenodd" d="M49.5258 78.2447C54.0664 82.7817 61.4246 82.7812 65.9645 78.2434L135.844 8.3982C137.71 6.53393 140.735 6.53393 142.601 8.3982C144.466 10.2625 144.466 13.2851 142.601 15.1493L61.1071 96.6018C59.2413 98.4661 56.2163 98.4661 54.3505 96.6018C54.2355 96.4868 54.1275 96.3675 54.0267 96.2443L35.3993 77.6318C33.5336 75.7675 33.5336 72.7449 35.3993 70.8807C37.2651 69.0164 40.2901 69.0164 42.1558 70.8807L49.5258 78.2447Z" fill="#EFC958"/>
    <rect x="133.184" y="46.5" width="10" height="164.726" transform="rotate(45 133.184 46.5)" fill="#4AB19D"/>
  </g>
</svg>
